<?xml version="1.0" encoding="utf-8"?>
<!-- Generator: Adobe Illustrator 19.1.0, SVG Export Plug-In . SVG Version: 6.00 Build 0)  -->
<svg version="1.1" id="Layer_1" xmlns="http://www.w3.org/2000/svg" xmlns:xlink="http://www.w3.org/1999/xlink" x="0px" y="0px"
	 viewBox="0 0 600 654.3" style="enable-background:new 0 0 600 654.3;" xml:space="preserve">
<style type="text/css">
	.st0{fill:#1F3C72;stroke:#C1C0C0;}
	.st1{fill:#5C7EAA;stroke:#C1C0C0;}
	.st2{fill:#26558B;stroke:#C1C0C0;}
	.st3{fill:#5D80AB;stroke:#C1C0C0;}
	.st4{fill:#426B9B;stroke:#C1C0C0;}
	.st5{fill:#205087;stroke:#C1C0C0;}
	.st6{fill:#95A9CA;stroke:#C1C0C0;}
	.st7{fill:#A3B5D3;stroke:#C1C0C0;}
	.st8{fill:#4D73A2;stroke:#C1C0C0;}
	.st9{fill:#5479A6;stroke:#C1C0C0;}
	.st10{fill:#6D8AB3;stroke:#C1C0C0;}
	.st11{fill:#F7F8F8;stroke:#C1C0C0;}
	.st12{fill:#C1C0C0;stroke:#F7F8F8;}
	
	
	<!--	/*Hover*/-->
	.st0:hover{fill:#ff0000;stroke:#C1C0C0;}<!-- البحرين-->
	.st1:hover{fill:#ff0000;stroke:#C1C0C0;} <!--العراق-->
	.st2:hover{fill:#ff0000;stroke:#C1C0C0;} <!--سرائيل-->
	.st3:hover{fill:#ff0000;stroke:#C1C0C0;} <!-- الاردن -->
	.st4:hover{fill:#ff0000;stroke:#C1C0C0;}<!--الكويت-->
	.st5:hover{fill:#ff0000;stroke:#C1C0C0;} <!--لبنان-->
	.st6:hover{fill:#ff0000;stroke:#C1C0C0;}<!--لسعودية-->
	.st7:hover{fill:#ff0000;stroke:#C1C0C0;} <!--عمان-->
	.st8:hover{fill:#ff0000;stroke:#C1C0C0;} <!--سوريا -->
	.st9:hover{fill:#ff0000;stroke:#C1C0C0;} <!--الامارات-->
	.st10:hover{fill:#ff0000;stroke:#C1C0C0;} <!--اليمن -->
	.st11:hover{fill:#ff0000;stroke:#C1C0C0;}
	.st12:hover{fill:#ff0000;stroke:#F7F8F8;}<!-- قطر -->
  
  
	.st13{fill:#FFFFFF;}
	.st13{font-family:'tahoma';}
	.st14{font-size:31.1811px;}
	.st15{font-size:22.6772px;}
	.st16{font-size:25.5118px;}
	.st17{font-size:19.8425px;}
	.st18{font-size:14.1732px;}
	.st19{font-size:17.0079px;}
	.st20{font-size:11.3386px;}
	.st21{font-size:8.5039px;}
</style>
<a href="http://test.borsacapital.com/test/gb/Materials/Images/Bahrain.png" target="_blank"><path vector-effect="non-scaling-stroke" class="st0" d="M392.6,330.4l2.9,1.5l-0.7,9.4l-2.9-5.1L392.6,330.4z"/></a>
  
<a href="#" target="_blank"><path vector-effect="non-scaling-stroke" class="st1" d="M350.5,244l-8.7-1.5l-3.6,0.7L320,244l-12.3,20.3l-39.9-2.2l-55.9-44.3
	l-35.5-19.6l-27.6-5.1l-2.2-8.7l-5.8-21l41.4-23.2l10.9-10.9l3.6-42.1l21-15.2l8-5.8l43.5,5.1l12.3,28.3l21.8,5.1L283,149l18.9,24.7
	l24.7,13.1l8.7,15.2l-2.9,18.1L350.5,244z"/></a>
  
<a href="#"><path vector-effect="non-scaling-stroke" class="st2" d="M42.2,212.8l13.8-23.2l5.8-19.6h8l7.3-7.3l1.5,10.9l-2.9,5.1l-4.4,2.2v21
	l-3.6,5.8l0.7,4.4l-0.7,1.5l0.7,0.7l-1.5,1.5l1.5,2.2l-5.8,15.2l-4.4,20.3l-0.7,2.2h-0.7l-1.5-5.8L42.2,212.8z"/></a>
  
<a href="#"><path vector-effect="non-scaling-stroke" class="st3" d="M68.3,217.9l2.2-2.2l-2.2-1.5l-0.7-0.7l0.7-1.5h2.9V202v-21l4.4-2.2
	L98,188.9l42.8-25.4l5.8,21l2.2,8.7l-47.2,15.2l21.8,23.2l-41.4,30.5l-23.9-3.6l1.5-4.4l-1.5-0.7l4.4-20.3L68.3,217.9z"/></a>
  
<a href="http://test.borsacapital.com/test/gb/Materials/Images/Kwuait.png" target="_blank"><path vector-effect="non-scaling-stroke" class="st4" d="M348.3,277.4l-21-10.2l-19.6-2.9L320,244l18.1-0.7l2.9,15.2L348.3,277.4z"
	/></a>
  
<a href="#"><path vector-effect="non-scaling-stroke" class="st5" d="M61.8,170l10.2-19.6l8-18.1l13.8,10.9L77,162.8l-7.3,7.3H61.8z"/></a>
  
<!--<a href="#"><path vector-effect="non-scaling-stroke" class="st6" d="M37.8,122.9 M7.3,120l1.5-0.7L8.1,120H7.3z"/></a>-->
  
<a href="#"><path vector-effect="non-scaling-stroke" class="st7" d="M517.3,353.6l-0.7,0.7v-2.2h2.2L517.3,353.6 M513,334.7l6.5-7.3l-2.2,17.4
	l-2.9-1.5L513,334.7 M425.2,494.3l64.6-22.5l13.8-44.3l-9.4-16.7l13.1-49.3l12.3-2.2l16.7,23.2L571,392l22.5,29.7l-45.7,55.9
	l2.9,15.2L525.3,503l-6.5,14.5l-19.6,2.2l-8.7,18.1l-41.4,8l-8-14.5L425.2,494.3z"/></a>
  
<a href="http://test.borsacapital.com/test/gb/Materials/Images/KSAScoreCard.jpg" target="_blank"><path vector-effect="non-scaling-stroke" class="st6" d="M348.3,277.4l10.2,22.5l26.8,21v21l14.5,22.5l3.6,4.4l5.1-1.5l1.5,7.3
	l5.8,1.5l21.8,29.7l56.6,5.1l9.4,16.7l-13.8,44.3l-64.6,22.5l-61.7,8l-21,10.2l-16,23.9l-48.6-8l-42.8,2.2l-8,21l-34.1-50.8
	l-5.8-18.1l-27.6-21l-12.3-19.6v-27.6L133.6,387L114,375.3l-6.5-20.3l-43.5-66l-13.8-1.5l8-29l23.9,3.6l41.4-30.5l-21.8-23.2
	l47.2-15.2l27.6,5.1l35.5,19.6l55.9,44.3l39.9,2.2l19.6,2.9L348.3,277.4z"/></a>
  
<a href="#"><path vector-effect="non-scaling-stroke" class="st8" d="M140.8,163.5L98,188.9l-22.5-10.2l2.9-5.1L77,162.8l16.7-19.6l-13.8-10.9
	l-0.7-18.1v-12.3l15.2-22.5l34.1-2.2l33.4,4.4l53-14.5l2.9,5.1l-21,15.2l-3.6,42.1l-10.9,10.9L140.8,163.5z"/></a>
  
<a href="http://test.borsacapital.com/test/gb/Materials/Images/ARE.png" target="_blank"><path vector-effect="non-scaling-stroke" class="st9" d="M517.3,344.9l2.2,2.2v12.3l-12.3,2.2l-13.1,49.3l-56.6-5.1l-21.8-29.7
	l55.1,2.2l42.1-43.5l1.5,8.7L517.3,344.9 M517.3,353.6l1.5-1.5h-2.2v2.2L517.3,353.6z"/></a>
  
<a href="#"><path vector-effect="non-scaling-stroke" class="st10" d="M425.2,494.3l16,37l8,14.5l-18.9,22.5L373,587.9l-18.9,15.2l-14.5-0.7
	l-28.3,13.8l-18.9,1.5l-40.6,16.7l-10.2-5.1l-16-59.5l1.5-18.1l8-21l42.8-2.2l48.6,8l16-23.9l21-10.2L425.2,494.3z"/></a>
  
<a href="#"><path vector-effect="non-scaling-stroke" class="st11" d="M399.8,364.5l-1.5-16.7l18.1-8.7l-8,28.3l-5.1,1.5L399.8,364.5z"/></a>
  
<a href="http://test.borsacapital.com/test/gb/Materials/Images/Qater.png" target="_blank"><path vector-effect="non-scaling-stroke" class="st12" d="M399.8,364.5l-1.5-16.7l18.1-8.7l-8,28.3l-5.1,1.5L399.8,364.5z"/></a>
  
<text transform="matrix(1 0 0 1 169.7601 389.1806)" class="st13 st14">Saudi Arabia</text>
<text transform="matrix(1 0 0 1 278.6307 579.6058)" class="st13 st15">Yemen</text>
<text transform="matrix(1 0 0 1 469.973 500.9844)" class="st13 st16">Oman</text>
<text transform="matrix(1 0 0 1 207.7864 178.2934)" class="st13 st14">Iraq</text>
<text transform="matrix(1 0 0 1 107.0019 127.9617)" class="st13 st17">Syria</text>
<text transform="matrix(1 0 0 1 73.7316 226.4783)" class="st13 st17">jordan</text>
<text transform="matrix(1 0 0 1 326.5928 262.1718)" class="st13 st18">Kuwait</text>
<text transform="matrix(1 0 0 1 444.6204 396.0002)" class="st13 st17">Emirate</text>
<text transform="matrix(1 0 0 1 402.2571 362.3051)" class="st13 st19">Qatar</text>
<text transform="matrix(1 0 0 1 386.123 322.7961)" class="st13 st20">Bahrain</text>
<text transform="matrix(1 0 0 1 15.1067 209.2131)" class="st13 st20">Palestine</text>
<text transform="matrix(1 0 0 1 45.3278 151.1767)" class="st13 st21">Lebanon</text>
</svg>
